<svg enable-background="new 0 0 64 64" viewBox="0 0 64 64" xmlns="http://www.w3.org/2000/svg"><g fill="#3a4249"><path d="m44 49h18v-24h-12v-11c-3.313 0-6 2.687-6 6z"/><path d="m8 28c0 1.657-1.343 3-3 3s-3-1.343-3-3 1.343-3 3-3 3 1.343 3 3z"/><path d="m8 34c0 1.657-1.343 3-3 3s-3-1.343-3-3 1.343-3 3-3 3 1.342 3 3z"/><path d="m8 40c0 1.657-1.343 3-3 3s-3-1.343-3-3 1.343-3 3-3 3 1.342 3 3z"/><path d="m8 46c0 1.657-1.343 3-3 3s-3-1.343-3-3 1.343-3 3-3 3 1.342 3 3z"/><path d="m42 8h-34v-2c0-2.209 1.791-4 4-4h26c2.209 0 4 1.791 4 4z"/><path d="m8 56h34v2c0 2.209-1.791 4-4 4h-26c-2.209 0-4-1.791-4-4z"/><path d="m8 10v44h34v-44zm17 11.999h10v2h-10zm13 6.001v8h-10v-8zm-26-13h10v8h-10zm-1 11.999h14v2h-14zm0 4h14v2h-14zm0 4h14v2h-14zm11 14.001h-10v-8h10zm5 .999h-2v-2h2zm4 0h-2v-2h2zm4 0h-2v-2h2zm4 0h-2v-2h2zm0-4h-14v-2h14zm0-4h-14v-2h14zm0-18h-2v-2h2zm0-4h-14v-2h14zm0-4h-14v-2h14z"/></g></svg>