<svg height="64" viewBox="0 0 64 64" width="64" xmlns="http://www.w3.org/2000/svg"><g fill="none" fill-rule="evenodd"><path d="m23.0185833 38.2776562c.1695562-.5258106.7417779-1.0922627 1.2590729-1.2590729l24.4095798-7.8712642c.5258107-.1695562.811866.1277608.6450558.6450558l-7.8712642 24.4095798c-.1695562.5258106-.7417779 1.0922627-1.2590729 1.2590729l-24.4095798 7.8712642c-.5258106.1695562-.811866-.1277607-.6450558-.6450558z" fill="#ffaf40" transform="matrix(.70710678 .70710678 -.70710678 .70710678 42.139495 -9.25374)"/><path d="m23.0185833 25.2776562c.1695562-.5258106.7417779-1.0922627 1.2590729-1.2590729l24.4095798-7.8712642c.5258107-.1695562.811866.1277608.6450558.6450558l-7.8712642 24.4095798c-.1695562.5258106-.7417779 1.0922627-1.2590729 1.2590729l-24.4095798 7.8712642c-.5258106.1695562-.811866-.1277607-.6450558-.6450558z" fill="#ff78c7" transform="matrix(.70710678 .70710678 -.70710678 .70710678 32.947107 -13.061352)"/><path d="m23.0185833 10.2776562c.1695562-.52581057.7417779-1.09226272 1.2590729-1.25907287l24.4095798-7.87126424c.5258107-.16955615.811866.12776078.6450558.64505578l-7.8712642 24.40957983c-.1695562.5258106-.7417779 1.0922627-1.2590729 1.2590729l-24.4095798 7.8712642c-.5258106.1695562-.811866-.1277607-.6450558-.6450558z" fill="#b4dffb" transform="matrix(.70710678 .70710678 -.70710678 .70710678 22.340505 -17.45475)"/></g></svg>