<svg height="70" width="69.178" xmlns="http://www.w3.org/2000/svg"><path d="m34.445817 69.88527-34.445817-28.30855s34.671858-41.3454 34.58351-41.57672c11.779361 14.43438 22.566845 27.1929 34.59449 41.66244 0 0-34.410022 28.32893-34.629257 28.3374-.05661.002-.102926-.0494-.102926-.11457zm2.256609-11.65979 1.997758-2.10333-1.406702-1.50429c-.773688-.82737-1.427171-1.56335-1.452185-1.63552-.02501-.0722.623417-.84616 1.44096-1.71996.817542-.8738 1.486442-1.67112 1.486442-1.77181s-.756731-.98646-1.681623-1.96838l-1.681622-1.78531 1.71593-1.81248 1.715932-1.81247.0011-1.8017.0011-1.80169.521913-.29793c1.987194-1.13437 3.840526-3.68672 4.517031-6.2207.359894-1.34805.323597-3.99683-.07392-5.39459-.727-2.55625-2.409994-4.79209-4.598072-6.10847-2.607651-1.56881-5.969293-1.66949-8.779727-.26297-1.563616.78254-3.376361 2.58317-4.181224 4.15328-1.716771 3.34905-1.622833 7.25452.251326 10.44877.567922.96794 2.304434 2.74484 3.189144 3.26332l.64289.37676v8.76408 8.76409l2.085075 2.2042c1.146792 1.21231 2.131364 2.1876 2.187941 2.16731.05657-.0203 1.001856-.98338 2.100622-2.14021zm-3.434259-28.48424c-1.218686-.56747-2.115974-1.98043-2.115974-3.33204 0-2.01643 2.5064-3.4839 4.655391-2.7257 1.323567.46699 2.480795 1.78223 2.480795 2.81954 0 1.20289-1.02962 2.60467-2.372328 3.22981-.916969.42693-1.743429.42955-2.647884.008z" fill="#00bcf2"/></svg>